<?xml version="1.0" ?><svg id="Layer_1" style="enable-background:new 0 0 24 24;" version="1.1" viewBox="0 0 24 24" xml:space="preserve" xmlns="http://www.w3.org/2000/svg" xmlns:xlink="http://www.w3.org/1999/xlink"><style type="text/css">
	.st0{fill:#1E232D;}
</style><path class="st0" d="M13,0h-2c0,0,0,1,0.1,1H11v12.6c-1.1-1-2.5-1.6-4-1.6c-3.3,0-6,2.7-6,6c0,3.3,2.7,6,6,6c3.3,0,6-2.7,6-6  c0,0,0,0,0,0v0V5.9c1.8,2.4,4.7,4,8,4V8C16.6,8,13,4,13,0z M7,22c-2.2,0-4-1.8-4-4c0-2.2,1.8-4,4-4s4,1.8,4,4C11,20.2,9.2,22,7,22z"/></svg>